# xmcd
#
# Track frame offsets:
# 150
# 26213
# 51186
# 69616
# 88874
# 105092
# 123488
# 142137
# 156954
#
# Disc length: 2306 seconds
#
# Revision: 0
# Processed by: cddbd v1.4PL0 Copyright (c) Steve Scherf et al.
# Submitted via: Audion 2.5.0 (http://www.panic.com/audion/)
#
DISCID=7e090009
DTITLE=mix - Slow musix
DYEAR=1900
DGENRE=
TTITLE0=Only time
TTITLE1=my angel
TTITLE2=so
TTITLE3=pour que tu maime
TTITLE4=dont be stupid
TTITLE5=thats the way
TTITLE6=any man of mine
TTITLE7=bad day
TTITLE8=so 2
EXTD=
EXTT0=
EXTT1=
EXTT2=
EXTT3=
EXTT4=
EXTT5=
EXTT6=
EXTT7=
EXTT8=
PLAYORDER=
